<svg xmlns="http://www.w3.org/2000/svg"><symbol id="logo-256" viewBox="0 0 256 256"><style>.st0,.st1{fill:#27aae1;stroke:#fff;stroke-miterlimit:10}.st1{fill:none;stroke-width:4;stroke-linecap:round}</style><path d="M216.6 255.9c6.9-16.2-12.3-21.7-12.3-21.7s6.2-15.9 5.9-40.5-8-52.1-10.4-58.7-15-37.9-16.8-49 9.5-20.2 14.4-23.3c4.9-3.1 18.4-10.2 22.6-15.4s4.6-17.4 4.9-22.3-1.3-21.8-3.8-24.3-18.7 4.7-26 8.1c0 0-14.1 6.5-19.6 5.3s-11.4-7.2-20.8-4.7c-20.7 6.9-32.6 24.2-35.1 31.8s-10.1 66.5 13.6 63.3c6.3 27.1-35.2 46.3-39.4 47.7s-39.6 18-41.3 44.5C37.9 182 56.3 159 65.4 145.5c1.2-1.7-.8-3.8-2.6-2.7-9.6 6.1-25.1 17.2-29.6 28.1-16 37.5 18.4 51.4 18.4 51.4 9.4 30.8 35.3 33.6 35.3 33.6h129.7z" class="st0"/><path d="M97.8 174.5s46.7 1.2 21.3 59.7c-1.7 7.8 25.8-2 22.6 21.5m1.8-200.9s25 41.6-10.2 50.1" class="st1"/></symbol></svg>