<svg id="Layer_1" data-name="Layer 1" xmlns="http://www.w3.org/2000/svg" width="32" height="32" viewBox="0 0 32 32"><title>Untitled-2</title><path d="M26.3,32c.9-2-1.5-2.7-1.5-2.7a14.6,14.6,0,0,0,.7-5A27.3,27.3,0,0,0,24.2,17a54.7,54.7,0,0,1-2.1-6.1c-.2-1.4,1.2-2.5,1.8-2.9a14.7,14.7,0,0,0,2.8-1.9,5.8,5.8,0,0,0,.6-2.8,7.9,7.9,0,0,0-.5-3c-.3-.3-2.3.6-3.2,1a6.4,6.4,0,0,1-2.4.7c-.7-.2-1.4-.9-2.6-.6a7.3,7.3,0,0,0-4.4,3.9c-.3.9-1.3,8.2,1.7,7.9.8,3.4-4.4,5.7-4.9,5.9s-5.2,2.8-5.5,6.1c-2.4-2,.7-5.7.7-5.7a2.9,2.9,0,0,0-2.5,2c-2,4.7,2,6.3,2,6.3A5.5,5.5,0,0,0,10.2,32Z" fill="#27aae1" stroke="#fff" stroke-miterlimit="10" stroke-width="0.12"/><path d="M11.5,21.9s5.8.1,2.6,7.4c-.2,1,3.2-.2,2.8,2.7" fill="none" stroke="#fff" stroke-linecap="round" stroke-miterlimit="10" stroke-width="0.5"/><path d="M17.2,7s3.1,5.2-1.3,6.2" fill="none" stroke="#f1f2f2" stroke-linecap="round" stroke-miterlimit="10" stroke-width="0.5"/></svg>