<svg id="Layer_1" data-name="Layer 1" xmlns="http://www.w3.org/2000/svg" width="256" height="256" viewBox="0 0 256 256"><title>Untitled-2</title><path d="M216.6,256c6.9-16.2-12.3-21.7-12.3-21.7s6.2-15.9,5.9-40.5-8-52.1-10.4-58.7-15-37.9-16.8-49,9.5-20.2,14.4-23.3S215.8,52.6,220,47.4s4.6-17.4,4.9-22.3S223.6,3.3,221.1.8s-18.7,4.7-26,8.1c0,0-14.1,6.5-19.6,5.3S164.1,7,154.7,9.5c-20.7,6.9-32.6,24.2-35.1,31.8s-10.1,66.5,13.6,63.3c6.3,27.1-35.2,46.3-39.4,47.7s-42.3,22.9-44,49.4c-19.5-15.8,6-46.3,6-46.3s-13.8,0-20.5,16.2c-16,37.5,16.4,50.8,16.4,50.8C61.1,253.2,87,256,87,256Z" fill="#27aae1" stroke="#fff" stroke-miterlimit="10"/><path d="M97.8,174.5s46.7,1.2,21.3,59.7c-1.7,7.8,25.8-2,22.6,21.5" fill="none" stroke="#fff" stroke-linecap="round" stroke-miterlimit="10" stroke-width="4"/><path d="M143.5,54.8s25,41.6-10.2,50.1" fill="none" stroke="#f1f2f2" stroke-linecap="round" stroke-miterlimit="10" stroke-width="4"/></svg>