<svg id="Layer_1" data-name="Layer 1" xmlns="http://www.w3.org/2000/svg" width="16" height="16" viewBox="0 0 16 16"><title>Untitled-2</title><path d="M12.8,16.1c.4-1-.8-1.4-.8-1.4a7.4,7.4,0,0,0,.4-2.5,13.8,13.8,0,0,0-.7-3.7,27.7,27.7,0,0,1-1.1-3.1c-.1-.7.6-1.3.9-1.5A7.4,7.4,0,0,0,13,3a3,3,0,0,0,.3-1.4A4,4,0,0,0,13.1.1c-.2-.2-1.2.3-1.6.5a3.2,3.2,0,0,1-1.2.3C9.9.9,9.5.5,8.9.6a3.7,3.7,0,0,0-2.2,2c-.2.5-.6,4.2.9,4,.4,1.7-2.2,2.9-2.5,3S2.5,11,2.4,12.7c-1.2-1,.4-2.9.4-2.9a1.5,1.5,0,0,0-1.3,1,2.3,2.3,0,0,0,1,3.2,2.8,2.8,0,0,0,2.2,2.1Z" fill="#27aae1" stroke="#fff" stroke-miterlimit="10" stroke-width="0.06"/></svg>