<svg id="Layer_1" data-name="Layer 1" xmlns="http://www.w3.org/2000/svg" width="64" height="64" viewBox="0 0 64 64"><title>Untitled-2</title><path d="M53.9,63.6c1.7-4-3-5.4-3-5.4a29,29,0,0,0,1.5-10,54.3,54.3,0,0,0-2.6-14.5c-.6-1.6-3.7-9.4-4.1-12.1s2.3-5,3.6-5.8,4.5-2.5,5.6-3.8,1.1-4.3,1.2-5.5-.3-5.4-.9-6-4.6,1.2-6.4,2c0,0-3.5,1.6-4.8,1.3s-2.8-1.8-5.2-1.1c-5.1,1.7-8.1,6-8.7,7.8S27.4,27,33.3,26.2c1.5,6.7-8.7,11.4-9.7,11.8S13.1,43.6,12.7,50.1c-4.8-3.9,1.5-11.4,1.5-11.4a5.9,5.9,0,0,0-5.1,4c-4,9.3,4,12.6,4,12.6,2.3,7.6,8.7,8.3,8.7,8.3Z" fill="#27aae1" stroke="#fff" stroke-miterlimit="10" stroke-width="0.25"/><path d="M24.5,43.5s11.5.3,5.3,14.7c-.4,1.9,6.4-.5,5.6,5.3" fill="none" stroke="#fff" stroke-linecap="round" stroke-miterlimit="10" stroke-width="0.99"/><path d="M35.8,13.9S42,24.2,33.3,26.3" fill="none" stroke="#f1f2f2" stroke-linecap="round" stroke-miterlimit="10" stroke-width="0.99"/></svg>