<?xml version="1.0" encoding="utf-8"?>
<!-- Generator: Adobe Illustrator 21.0.2, SVG Export Plug-In . SVG Version: 6.00 Build 0)  -->
<svg version="1.1" id="Layer_1" xmlns="http://www.w3.org/2000/svg" xmlns:xlink="http://www.w3.org/1999/xlink" x="0px" y="0px"
	 viewBox="0 0 256 256" style="enable-background:new 0 0 256 256;" xml:space="preserve">
<style type="text/css">
	.st0{fill:#27AAE1;stroke:#FFFFFF;stroke-miterlimit:10;}
	.st1{fill:none;stroke:#FFFFFF;stroke-width:4;stroke-linecap:round;stroke-miterlimit:10;}
</style>
<title>Untitled-2</title>
<path class="st0" d="M216.6,255.9c6.9-16.2-12.3-21.7-12.3-21.7s6.2-15.9,5.9-40.5s-8-52.1-10.4-58.7s-15-37.9-16.8-49
	s9.5-20.2,14.4-23.3c4.9-3.1,18.4-10.2,22.6-15.4s4.6-17.4,4.9-22.3s-1.3-21.8-3.8-24.3s-18.7,4.7-26,8.1c0,0-14.1,6.5-19.6,5.3
	s-11.4-7.2-20.8-4.7c-20.7,6.9-32.6,24.2-35.1,31.8s-10.1,66.5,13.6,63.3c6.3,27.1-35.2,46.3-39.4,47.7s-39.6,18-41.3,44.5
	c-14.6-14.7,3.8-37.7,12.9-51.2c1.2-1.7-0.8-3.8-2.6-2.7c-9.6,6.1-25.1,17.2-29.6,28.1c-16,37.5,18.4,51.4,18.4,51.4
	c9.4,30.8,35.3,33.6,35.3,33.6H216.6z"/>
<path class="st1" d="M97.8,174.5c0,0,46.7,1.2,21.3,59.7c-1.7,7.8,25.8-2,22.6,21.5"/>
<path class="st1" d="M143.5,54.8c0,0,25,41.6-10.2,50.1"/>
</svg>
